# AST/ASF file generated using VICON BodyLanguage
# -----------------------------------------------
:version 1.10
:name VICON
:units
  mass 1.0
  length 0.45
  angle deg
:documentation
   .ast/.asf automatically generated from VICON data using
   VICON BodyBuilder and BodyLanguage model FoxedUp or BRILLIANT.MOD
:root
   order TX TY TZ RX RY RZ
   axis XYZ
   position 0 0 0  
   orientation 0 0 0 
:bonedata
  begin
     id 1 
     name lhipjoint
     direction 0.660183 -0.676772 0.325788 
     length 2.75133 
     axis 0 0 0  XYZ
  end
  begin
     id 2 
     name lfemur
     direction 0.34202 -0.939693 0  
     length 7.70317  
     axis 0 0 20  XYZ
    dof rx ry rz
    limits (-160.0 20.0)
           (-70.0 70.0)
           (-60.0 70.0)
  end
  begin
     id 3 
     name ltibia
     direction 0.342105 -0.939662 0   
     length 7.18701   
     axis 0 0 20   XYZ
    dof rx
    limits (-10.0 170.0)
  end
  begin
     id 4 
     name lfoot
     direction 0.14163 -0.389126 0.910232   
     length 2.41719   
     axis -90 7.62852e-016 20   XYZ
    dof rx rz
    limits (-45.0 90.0)
           (-70.0 20.0)
  end
  begin
     id 5 
     name ltoes
     direction 1.53533e-011 -4.21926e-011 1   
     length 1.18611   
     axis -90 7.62852e-016 20   XYZ
    dof rx
    limits (-90.0 20.0)
  end
  begin
     id 6 
     name rhipjoint
     direction -0.6658 -0.67229 0.323631   
     length 2.76968  
     axis 0 0 0  XYZ 
  end
  begin
     id 7 
     name rfemur
     direction -0.34202 -0.939693 0   
     length 7.92547   
     axis 0 0 -20   XYZ
    dof rx ry rz
    limits (-160.0 20.0)
           (-70.0 70.0)
           (-70.0 60.0)
  end
  begin
     id 8 
     name rtibia
     direction -0.342022 -0.939692 0   
     length 7.22641   
     axis 0 0 -20   XYZ
    dof rx
    limits (-10.0 170.0)
 end
 begin
     id 9 
     name rfoot
     direction -0.105675 -0.29034 0.951071   
     length 2.48149  
     axis -90 -7.62852e-016 -20   XYZ
    dof rx rz
    limits (-45.0 90.0)
           (-20.0 70.0)
  end
  begin
     id 10 
     name rtoes
     direction -1.5349e-011 -4.21859e-011 1   
     length 1.23343   
     axis -90 -7.62852e-016 -20   XYZ
    dof rx
    limits (-90.0 20.0)
  end
  begin
     id 11 
     name lowerback
     direction 0.0104173 0.993624 -0.112266   
     length 2.00527   
     axis 0 0 0   XYZ
    dof rx ry rz
    limits (-20.0 45.0)
           (-30.0 30.0)
           (-30.0 30.0)
  end
  begin
     id 12 
     name upperback
     direction 0.00733149 0.999856 -0.0152913   
     length 2.01385   
     axis 0 0 0   XYZ
    dof rx ry rz
    limits (-20.0 45.0)
           (-30.0 30.0)
           (-30.0 30.0)
  end
  begin
     id 13 
     name thorax
     direction 0.0026304 0.999318 0.036841   
     length 2.03734   
     axis 0 0 0   XYZ
    dof rx ry rz
    limits (-20.0 45.0)
           (-30.0 30.0)
           (-30.0 30.0)
  end
  begin
     id 14 
     name lowerneck
     direction 0.0293154 0.998757 0.0403082   
     length 1.65303   
     axis 0 0 0   XYZ
    dof rx ry rz
    limits (-20.0 45.0)
           (-30.0 30.0)
           (-30.0 30.0)
  end
  begin
     id 15 
     name upperneck
     direction -0.0376619 0.998184 -0.0470083   
     length 1.60926   
     axis 0 0 0   XYZ
    dof rx ry rz
    limits (-20.0 45.0)
           (-30.0 30.0)
           (-30.0 30.0)
  end
  begin
     id 16
     name head
     direction -0.0170133 0.999635 -0.0209778  
     length 1.73625  
     axis 0 0 0   XYZ
    dof rx ry rz
    limits (-20.0 45.0)
           (-30.0 30.0)
           (-30.0 30.0)
  end
  begin
     id 17 
     name lclavicle
     direction 0.919857 0.39181 -0.0186333  
     length 3.75313  
     axis 0 0 0   XYZ
    dof ry rz
    limits (-20.0 10.0)
           (0.0 20.0)
  end
  begin
     id 18 
     name lhumerus
     direction 1 -4.48988e-011 1.44029e-027   
     length 5.49313   
     axis 180 -30 -90   XYZ
    dof rx ry rz
    limits (-60.0 90.0)
           (-90.0 90.0)
           (-90.0 90.0)
  end
  begin
     id 19
     name lradius
     direction 1 -4.48924e-011 7.46281e-027   
     length 3.29037   
     axis 180 -30 -90   XYZ
    dof rx
    limits (-10.0 170.0)
  end
  begin
     id 20
     name lwrist
     direction 1 -4.48955e-011 2.19879e-026   
     length 1.64519   
     axis -1.34358e-014 90 90   XYZ
    dof ry
    limits (-180.0 0.0)
 end
  begin
     id 21 
     name lhand
     direction 1 -4.48978e-011 4.39747e-026   
     length 0.729656   
     axis -2.80598e-014 90 90   XYZ
    dof rx rz
    limits (-90.0 90.0)
           (-45.0 45.0)
  end
  begin
     id 22 
     name lfingers
     direction 1 -4.49071e-011 8.79411e-026   
     length 0.588268   
     axis -5.61193e-014 90 90   XYZ
    dof rx
    limits (0.0 90.0)
  end
  begin
     id 23
     name lthumb
     direction 0.707107 -6.34817e-011 0.707107   
     length 0.844638   
     axis -90 45 -9.86923e-015   XYZ
    dof rx rz
    limits (-45.0 45.0)
           (-45.0 45.0)
  end
  begin
     id 24 
     name rclavicle
     direction -0.919898 0.388279 0.0550233   
     length 3.7171  
     axis 0 0 0   XYZ 
    dof ry rz
    limits (-10.0 20.0)
           (-20.0 0.0)
  end
  begin
     id 25 
     name rhumerus
     direction -1 -4.48968e-011 9.98372e-028  
     length 5.23684   
     axis 180 30 90   XYZ
    dof rx ry rz
    limits (-90.0 60.0)
           (-90.0 90.0)
           (-90.0 90.0)
  end
  begin
     id 26 
     name rradius
     direction -1 -4.48956e-011 1.01023e-026   
     length 3.38251   
     axis 180 30 90   XYZ
    dof rx
    limits (-10.0 170.0)
  end
  begin
     id 27 
     name rwrist
     direction -1 -4.4892e-011 2.19886e-026   
     length 1.69126   
     axis -1.34358e-014 -90 -90   XYZ
    dof ry
    limits (-180.0 0.0)
  end
  begin
     id 28
     name rhand
     direction -1 -4.49024e-011 4.39727e-026   
     length 0.691454   
     axis -2.80598e-014 -90 -90   XYZ
    dof rx rz
    limits (-90.0 90.0)
           (-45.0 45.0)
  end
  begin
     id 29
     name rfingers
     direction -1 -4.49097e-011 8.79388e-026   
     length 0.557468   
     axis -5.61193e-014 -90 -90   XYZ
    dof rx
    limits (0.0 90.0)
  end
  begin
     id 30
     name rthumb
     direction -0.707107 -6.34938e-011 0.707107   
     length 0.800416   
     axis -90 -45 9.86923e-015   XYZ
    dof rx rz
    limits (-45.0 45.0)
           (-45.0 45.0)
  end
:hierarchy
  begin
    root lhipjoint rhipjoint lowerback
    lhipjoint lfemur
    lfemur ltibia
    ltibia lfoot
    lfoot ltoes
    rhipjoint rfemur
    rfemur rtibia
    rtibia rfoot
    rfoot rtoes
    lowerback upperback
    upperback thorax
    thorax lowerneck lclavicle rclavicle
    lowerneck upperneck
    upperneck head
    lclavicle lhumerus
    lhumerus lradius
    lradius lwrist
    lwrist lhand lthumb
    lhand lfingers
    rclavicle rhumerus
    rhumerus rradius
    rradius rwrist
    rwrist rhand rthumb
    rhand rfingers
  end

#!OML:ASF H:\BabyWalks\Project 1\Capture day 1\Session 1\baby.ASF
:FULLY-SPECIFIED
:DEGREES
111
root -14.2706 15.875 -2.21385 94.283 -84.7612 -109.85
lowerback 14.0808 -0.0228386 1.5303
upperback 4.17584 0.0376043 1.23399
thorax -3.48567 -0.0725097 0.425203
lowerneck -4.93196 0.293041 4.99816
upperneck 12.0384 0.211503 -3.40039
head 4.41883 0.0854931 -1.85845
rclavicle -2.62768e-015 9.54166e-015
rhumerus 30.4796 6.10014 -64.6279
rradius 77.2777
rwrist 15.8043
rhand 27.0227 -26.909
rfingers 7.12502
rthumb 51.0114 -47.584
lclavicle -2.62768e-015 9.54166e-015
lhumerus 30.9259 -10.3704 62.3073
lradius 83.6041
lwrist -3.11888
lhand 26.6971 30.8432
lfingers 7.12502
lthumb 50.7146 51.6825
rfemur -1.43268 -13.7549 13.1096
rtibia 56.6606
rfoot -32.1689 -12.3399
rtoes -14.057
lfemur -3.68366 11.0364 1.15204
ltibia 56.8084
lfoot -36.88 -7.57177
ltoes -14.1359
112
root -14.2692 15.8869 -2.20585 93.6872 -84.8932 -109.158
lowerback 14.0641 -0.0500377 1.53112
upperback 4.1332 0.00304033 1.18241
thorax -3.52151 -0.088425 0.376594
lowerneck -4.84671 0.284171 4.99871
upperneck 11.7436 0.205454 -3.3974
head 4.31428 0.084225 -1.85565
rclavicle -2.35436e-015 -9.34288e-015
rhumerus 30.3647 6.14838 -64.5706
rradius 77.2202
rwrist 15.7235
rhand 27.1128 -26.8793
rfingers 7.12502
rthumb 51.0935 -47.5084
lclavicle -2.35436e-015 -9.34288e-015
lhumerus 30.8997 -10.3261 62.4032
lradius 83.3159
lwrist -3.05784
lhand 26.7548 30.8594
lfingers 7.12502
lthumb 50.7672 51.6698
rfemur -1.4354 -13.9151 12.8934
rtibia 56.5144
rfoot -32.0658 -12.1669
rtoes -14.1223
lfemur -3.72283 10.8923 0.872962
ltibia 56.6168
lfoot -36.7775 -7.41018
ltoes -14.0997
113
root -14.274 15.9014 -2.21489 94.3712 -84.6834 -109.87
lowerback 14.0548 -0.0202536 1.60518
upperback 4.1645 0.0526349 1.26221
thorax -3.48322 -0.0650898 0.409878
lowerneck -4.72778 0.277235 5.12885
upperneck 11.4015 0.220494 -3.64807
head 4.1904 0.0854032 -1.95089
rclavicle 1.77043e-016 -2.84262e-014
rhumerus 30.3012 6.20314 -64.5461
rradius 77.128
rwrist 15.6405
rhand 27.1156 -26.8827
rfingers 7.12502
rthumb 51.0961 -47.5103
lclavicle 1.77043e-016 -2.84262e-014
lhumerus 30.914 -10.2588 62.4045
lradius 83.0193
lwrist -3.03338
lhand 26.781 30.8059
lfingers 7.12502
lthumb 50.7911 51.6031
rfemur -1.35952 -13.6953 13.2359
rtibia 56.3562
rfoot -31.9939 -12.2316
rtoes -14.0424
lfemur -3.56062 10.9144 1.14124
ltibia 56.4154
lfoot -36.7224 -7.38348
ltoes -14.1987
114
root -14.2756 15.9151 -2.2135 94.5937 -84.8096 -110.039
lowerback 14.0343 -0.0143863 1.50132
upperback 4.13594 0.0467896 1.22406
thorax -3.50249 -0.0668279 0.429534
lowerneck -4.65376 0.306621 5.13865
upperneck 11.2294 0.261211 -3.62904
head 4.12757 0.107875 -1.94331
rclavicle -3.53153e-015 8.74653e-015
rhumerus 30.205 6.27358 -64.5003
rradius 77.0622
rwrist 15.636
rhand 27.1009 -26.9334
rfingers 7.12502
rthumb 51.0827 -47.5686
lclavicle -3.53153e-015 8.74653e-015
lhumerus 30.874 -10.2281 62.42
lradius 82.7328
lwrist -3.08223
lhand 26.6745 30.7957
lfingers 7.12502
lthumb 50.6939 51.6464
rfemur -1.34868 -13.6725 13.0562
rtibia 56.2316
rfoot -32.0017 -11.8325
rtoes -13.3993
lfemur -3.51569 10.8199 0.903841
ltibia 56.2145
lfoot -36.6187 -7.23877
ltoes -14.1948
115
root -14.274 15.9244 -2.20509 93.9581 -84.9994 -109.331
lowerback 14.0215 -0.051887 1.4501
upperback 4.10546 -0.0101773 1.14886
thorax -3.52788 -0.0937704 0.389311
lowerneck -4.75236 0.326167 5.0716
upperneck 11.2435 0.284302 -3.57653
head 4.14933 0.119013 -1.9152
rclavicle 3.06563e-015 -6.16232e-015
rhumerus 30.1221 6.334 -64.4761
rradius 76.9854
rwrist 15.6944
rhand 27.0662 -26.9337
rfingers 7.12502
rthumb 51.051 -47.5866
lclavicle 3.06563e-015 -6.16232e-015
lhumerus 30.8454 -10.1917 62.4016
lradius 82.4408
lwrist -3.172
lhand 26.6729 30.8397
lfingers 7.12502
lthumb 50.6925 51.6911
rfemur -1.31758 -13.8785 12.724
rtibia 56.1104
rfoot -31.9507 -11.4577
rtoes -13.2855
lfemur -3.53467 10.6511 0.556952
ltibia 56.0328
lfoot -36.537 -7.07719
ltoes -14.062
116
root -14.2737 15.9348 -2.20747 94.0567 -84.9371 -109.392
lowerback 14.0109 -0.0602952 1.46374
upperback 4.08723 -0.0173159 1.17982
thorax -3.54127 -0.0972258 0.415219
lowerneck -4.69121 0.354913 5.02538
upperneck 11.0982 0.324444 -3.52191
head 4.09668 0.140559 -1.88781
rclavicle 4.28008e-015 -7.95139e-016
rhumerus 30.0527 6.42306 -64.4398
rradius 76.9337
rwrist 15.7921
rhand 27.0819 -26.8775
rfingers 7.12502
rthumb 51.0654 -47.5223
lclavicle 4.28008e-015 -7.95139e-016
lhumerus 30.814 -10.0999 62.3874
lradius 82.1564
lwrist -3.26091
lhand 26.6384 30.8457
lfingers 7.12502
lthumb 50.661 51.7143
rfemur -1.3045 -13.852 12.8102
rtibia 55.9969
rfoot -31.8471 -11.3485
rtoes -13.3788
lfemur -3.49732 10.5824 0.586948
ltibia 55.8646
lfoot -36.4395 -7.00208
ltoes -14.1084
117
root -14.2763 15.9459 -2.21481 94.9597 -84.7692 -110.298
lowerback 14.0095 -0.0268664 1.5342
upperback 4.07719 0.0389554 1.23643
thorax -3.55069 -0.0698485 0.4253
lowerneck -4.78615 0.395805 4.92945
upperneck 10.7549 0.350774 -3.29295
head 4.45622 0.174799 -1.9914
rclavicle 8.75895e-016 1.39149e-015
rhumerus 29.9799 6.45173 -64.415
rradius 76.8404
rwrist 15.873
rhand 27.0518 -26.9037
rfingers 7.12502
rthumb 51.038 -47.5639
lclavicle 8.75895e-016 1.39149e-015
lhumerus 30.7972 -10.0933 62.3305
lradius 81.908
lwrist -3.33629
lhand 26.624 30.8712
lfingers 7.12502
lthumb 50.6478 51.747
rfemur -1.28742 -13.7089 13.038
rtibia 55.8995
rfoot -31.7404 -11.2737
rtoes -13.5204
lfemur -3.37857 10.6045 0.786647
ltibia 55.6787
lfoot -36.3467 -7.01204
ltoes -13.9846
118
root -14.2765 15.9559 -2.21447 95.2198 -84.8435 -110.546
lowerback 14.0156 -0.0256768 1.45472
upperback 4.07767 0.0290672 1.21822
thorax -3.55374 -0.074436 0.452788
lowerneck -4.75506 0.391325 4.97267
upperneck 10.6059 0.352694 -3.37809
head 4.39732 0.17377 -2.02616
rclavicle -1.35111e-015 1.03368e-014
rhumerus 29.9609 6.48904 -64.399
rradius 76.7704
rwrist 15.9463
rhand 26.9348 -26.9408
rfingers 7.12502
rthumb 50.9313 -47.6605
lclavicle -1.35111e-015 1.03368e-014
lhumerus 30.7741 -10.0272 62.2754
lradius 81.6721
lwrist -3.41043
lhand 26.5759 30.9467
lfingers 7.12502
lthumb 50.604 51.8464
rfemur -1.2622 -13.7167 12.91
rtibia 55.8116
rfoot -31.557 -11.1595
rtoes -14.0146
lfemur -3.31381 10.513 0.640335
ltibia 55.5151
lfoot -36.2509 -6.90093
ltoes -14.0561
119
root -14.2763 15.9766 -2.20704 95.0613 -85.0288 -110.298
lowerback 13.9806 -0.0464545 1.4137
upperback 4.04136 -0.0045403 1.13645
thorax -3.57316 -0.0895486 0.395935
lowerneck -4.78898 0.394169 4.83749
upperneck 10.5284 0.349475 -3.20016
head 4.37233 0.175371 -1.93892
rclavicle 3.62161e-015 2.28602e-014
rhumerus 29.8938 6.47668 -64.3979
rradius 76.7387
rwrist 16.0358
rhand 26.9778 -26.9126
rfingers 7.12502
rthumb 50.9705 -47.6105
lclavicle 3.62161e-015 2.28602e-014
lhumerus 30.8196 -9.97194 62.2388
lradius 81.4197
lwrist -3.47747
lhand 26.6583 30.9001
lfingers 7.12502
lthumb 50.6791 51.7588
rfemur -1.32039 -13.648 12.624
rtibia 55.7609
rfoot -31.4324 -10.624
rtoes -13.7766
lfemur -3.30579 10.4126 0.309319
ltibia 55.3056
lfoot -36.1508 -6.7348
ltoes -14.1507
120
root -14.2754 15.9832 -2.21591 96.0648 -84.7189 -111.289
lowerback 14.0098 -0.0213298 1.57853
upperback 4.01992 0.0565917 1.24725
thorax -3.61079 -0.0605689 0.408799
lowerneck -4.47774 0.350725 5.1761
upperneck 10.1364 0.319896 -3.6236
head 4.17561 0.155501 -2.14012
rclavicle -5.91074e-015 -1.35174e-014
rhumerus 29.8559 6.50439 -64.3728
rradius 76.7131
rwrist 16.0367
rhand 26.9361 -26.9722
rfingers 7.12502
rthumb 50.9325 -47.6912
lclavicle -5.91074e-015 -1.35174e-014
lhumerus 30.798 -9.90319 62.1953
lradius 81.2166
lwrist -3.58234
lhand 26.6677 31.0169
lfingers 7.12502
lthumb 50.6877 51.8709
rfemur -1.39205 -13.3669 13.011
rtibia 55.7255
rfoot -31.2648 -10.4171
rtoes -14.1224
lfemur -3.23903 10.5246 0.715278
ltibia 55.1669
lfoot -36.0333 -6.84195
ltoes -14.2207
121
root -14.276 15.9939 -2.21659 96.2038 -84.8652 -111.422
lowerback 14.0218 -0.0171207 1.42746
upperback 4.01502 0.040786 1.21179
thorax -3.62294 -0.0676013 0.459675
lowerneck -4.49348 0.355095 5.21676
upperneck 10.0936 0.331286 -3.7145
head 4.16549 0.158599 -2.17799
rclavicle -4.84227e-015 1.55052e-014
rhumerus 29.8362 6.47356 -64.3963
rradius 76.6732
rwrist 16.0388
rhand 26.8929 -26.9659
rfingers 7.12502
rthumb 50.8931 -47.7068
lclavicle -4.84227e-015 1.55052e-014
lhumerus 30.7772 -9.8296 62.1454
lradius 81.0266
lwrist -3.74421
lhand 26.6417 31.1226
lfingers 7.12502
lthumb 50.664 51.9896
rfemur -1.35941 -13.1205 12.8337
rtibia 55.7139
rfoot -31.1736 -10.139
rtoes -14.6648
lfemur -3.17485 10.4697 0.510616
ltibia 54.9944
lfoot -35.9462 -6.8011
ltoes -14.1524
